<svg width="200" height="200" viewBox="0 0 200 200" fill="none" xmlns="http://www.w3.org/2000/svg">
  <!-- Background Circle -->
  <circle cx="100" cy="100" r="90" fill="url(#gradient3)" opacity="0.1"/>
  
  <!-- Dashboard/Chart Frame -->
  <rect x="50" y="60" width="100" height="80" rx="4" stroke="currentColor" stroke-width="4" fill="none"/>
  
  <!-- Bar Chart -->
  <rect x="60" y="120" width="12" height="15" fill="currentColor" opacity="0.8"/>
  <rect x="78" y="110" width="12" height="25" fill="currentColor" opacity="0.8"/>
  <rect x="96" y="100" width="12" height="35" fill="currentColor" opacity="0.8"/>
  <rect x="114" y="105" width="12" height="30" fill="currentColor" opacity="0.8"/>
  <rect x="132" y="115" width="12" height="20" fill="currentColor" opacity="0.8"/>
  
  <!-- Line Chart -->
  <path d="M60 100L75 95L90 85L105 80L120 75L135 70" stroke="currentColor" stroke-width="3" stroke-linecap="round" fill="none"/>
  <circle cx="60" cy="100" r="3" fill="currentColor"/>
  <circle cx="75" cy="95" r="3" fill="currentColor"/>
  <circle cx="90" cy="85" r="3" fill="currentColor"/>
  <circle cx="105" cy="80" r="3" fill="currentColor"/>
  <circle cx="120" cy="75" r="3" fill="currentColor"/>
  <circle cx="135" cy="70" r="3" fill="currentColor"/>
  
  <!-- Gear Icon (Top Right) -->
  <circle cx="150" cy="50" r="12" stroke="currentColor" stroke-width="3" fill="none"/>
  <circle cx="150" cy="50" r="4" fill="currentColor"/>
  <line x1="150" y1="38" x2="150" y2="42" stroke="currentColor" stroke-width="2" stroke-linecap="round"/>
  <line x1="150" y1="58" x2="150" y2="62" stroke="currentColor" stroke-width="2" stroke-linecap="round"/>
  <line x1="138" y1="50" x2="142" y2="50" stroke="currentColor" stroke-width="2" stroke-linecap="round"/>
  <line x1="158" y1="50" x2="162" y2="50" stroke="currentColor" stroke-width="2" stroke-linecap="round"/>
  <line x1="144" y1="44" x2="146" y2="46" stroke="currentColor" stroke-width="2" stroke-linecap="round"/>
  <line x1="154" y1="54" x2="156" y2="56" stroke="currentColor" stroke-width="2" stroke-linecap="round"/>
  <line x1="154" y1="44" x2="156" y2="46" stroke="currentColor" stroke-width="2" stroke-linecap="round"/>
  <line x1="144" y1="54" x2="146" y2="56" stroke="currentColor" stroke-width="2" stroke-linecap="round"/>
  
  <!-- Gradient Definition -->
  <defs>
    <linearGradient id="gradient3" x1="0%" y1="0%" x2="100%" y2="100%">
      <stop offset="0%" style="stop-color:#0078d4;stop-opacity:1" />
      <stop offset="100%" style="stop-color:#62ade9;stop-opacity:1" />
    </linearGradient>
  </defs>
</svg>

